<svg width="30" height="30" viewBox="0 0 30 30" fill="none" xmlns="http://www.w3.org/2000/svg">
<path d="M4.16675 13.221C4.16675 10.7412 4.16675 9.50188 4.73008 8.47488C5.29125 7.44679 6.31933 6.80979 8.37441 5.53363L10.5411 4.18921C12.7132 2.84046 13.7997 2.16663 15.0001 2.16663C16.2004 2.16663 17.2859 2.84046 19.4591 4.18921L21.6257 5.53363C23.6808 6.80979 24.7089 7.44679 25.2712 8.47488C25.8334 9.50188 25.8334 10.7412 25.8334 13.2199V14.8687C25.8334 19.0937 25.8334 21.2073 24.5637 22.5203C23.2952 23.8333 21.252 23.8333 17.1667 23.8333H12.8334C8.74816 23.8333 6.705 23.8333 5.43641 22.5203C4.16675 21.2073 4.16675 19.0948 4.16675 14.8687V13.221Z" stroke="#00C27C" stroke-width="1.5"/>
<path d="M15 16.25V19.5" stroke="#00C27C" stroke-width="1.5" stroke-linecap="round"/>
</svg>
