<svg width="160" height="160" viewBox="0 0 160 160" fill="none" xmlns="http://www.w3.org/2000/svg">
<rect x="2" y="2" width="156" height="156" rx="78" fill="white" stroke="#00C27C" stroke-width="4"/>
<path d="M71.1833 76.1666H74.2308V85.75C74.2308 86.8041 75.0933 87.6666 76.1475 87.6666H83.8142C84.8683 87.6666 85.7308 86.8041 85.7308 85.75V76.1666H88.7783C90.4842 76.1666 91.3467 74.0966 90.1392 72.8891L81.3417 64.0916C81.1643 63.914 80.9537 63.773 80.7219 63.6768C80.49 63.5806 80.2414 63.5311 79.9904 63.5311C79.7394 63.5311 79.4908 63.5806 79.259 63.6768C79.0271 63.773 78.8165 63.914 78.6392 64.0916L69.8417 72.8891C68.6342 74.0966 69.4775 76.1666 71.1833 76.1666ZM66.5833 93.4166C66.5833 94.4708 67.4458 95.3333 68.5 95.3333H91.5C92.5542 95.3333 93.4167 94.4708 93.4167 93.4166C93.4167 92.3625 92.5542 91.5 91.5 91.5H68.5C67.4458 91.5 66.5833 92.3625 66.5833 93.4166Z" fill="#00C27C"/>
</svg>
