<svg width="238" height="61" viewBox="0 0 238 61" fill="none" xmlns="http://www.w3.org/2000/svg">
<path d="M48.5756 41.2768L53.3806 26.8564C57.5807 14.2618 59.6807 7.9644 56.3542 4.64073C53.0306 1.31705 46.7332 3.4143 34.1357 7.61439L19.7182 12.4193C9.55394 15.8074 4.47182 17.5042 3.02979 19.9879C2.35529 21.1487 2 22.4674 2 23.81C2 25.1525 2.35529 26.4712 3.02979 27.6321C4.47182 30.1185 9.55394 31.8126 19.7182 35.2034C20.9782 35.6234 22.3978 35.321 23.3415 34.3886L38.7586 19.1143C38.9613 18.8942 39.2064 18.7175 39.4793 18.5949C39.7522 18.4723 40.0471 18.4063 40.3463 18.4009C40.6454 18.3956 40.9425 18.4509 41.2196 18.5637C41.4967 18.6764 41.748 18.8442 41.9584 19.0569C42.1688 19.2696 42.3339 19.5227 42.4437 19.801C42.5535 20.0793 42.6056 20.377 42.597 20.6761C42.5885 20.9751 42.5193 21.2693 42.3938 21.5408C42.2683 21.8124 42.0889 22.0557 41.8667 22.2559L26.7015 37.2811C26.1957 37.7981 25.8431 38.4453 25.6829 39.1506C25.5228 39.856 25.5613 40.592 25.7943 41.2768C29.1824 51.441 30.8792 56.5259 33.3629 57.9708C34.5244 58.645 35.8434 59.0001 37.1864 59.0001C38.5293 59.0001 39.8484 58.645 41.0099 57.9708C43.4935 56.5259 45.1848 51.4438 48.5756 41.2768Z" fill="#00C27C"/>
<path d="M74.0213 0.983997H81.7013C83.6533 0.983997 85.4933 1.4 87.2213 2.232C88.9813 3.064 90.5173 4.2 91.8293 5.64C93.1413 7.048 94.1813 8.696 94.9493 10.584C95.7493 12.44 96.1493 14.408 96.1493 16.488C96.1493 18.376 95.8453 20.216 95.2373 22.008C94.6613 23.768 93.8133 25.32 92.6933 26.664C89.2693 30.888 84.7253 33 79.0613 33H74.0213V0.983997ZM79.7333 27.288C80.9493 27.288 81.9893 27.16 82.8533 26.904C83.7173 26.616 84.6613 26.136 85.6853 25.464C88.8533 23.32 90.4373 20.456 90.4373 16.872C90.4373 15.048 90.0213 13.352 89.1893 11.784C88.3573 10.216 87.2213 8.968 85.7813 8.04C84.8533 7.464 83.9413 7.064 83.0453 6.84C82.1813 6.584 81.0773 6.44 79.7333 6.408V27.288ZM108.168 27.672C108.584 27.864 108.92 27.992 109.176 28.056C109.432 28.12 109.72 28.152 110.04 28.152C111.384 28.152 112.616 27.928 113.736 27.48C114.856 27.032 116.168 26.248 117.672 25.128V31.032C116.904 31.512 116.2 31.928 115.56 32.28C114.952 32.6 114.36 32.856 113.784 33.048C113.208 33.24 112.632 33.368 112.056 33.432C111.512 33.528 110.92 33.576 110.28 33.576C108.744 33.576 107.288 33.288 105.912 32.712C104.536 32.136 103.336 31.352 102.312 30.36C101.288 29.336 100.472 28.152 99.8641 26.808C99.2881 25.464 99.0001 24.024 99.0001 22.488C99.0001 20.92 99.2881 19.448 99.8641 18.072C100.472 16.696 101.288 15.496 102.312 14.472C103.336 13.448 104.536 12.632 105.912 12.024C107.288 11.416 108.76 11.112 110.328 11.112C112.152 11.112 113.8 11.496 115.272 12.264C116.744 13.032 118.248 14.296 119.784 16.056L108.168 27.672ZM112.296 17.016C111.816 16.824 111.416 16.696 111.096 16.632C110.808 16.568 110.488 16.536 110.136 16.536C109.368 16.536 108.632 16.696 107.928 17.016C107.256 17.304 106.648 17.72 106.104 18.264C105.592 18.776 105.176 19.384 104.856 20.088C104.568 20.792 104.424 21.544 104.424 22.344C104.424 22.696 104.456 23.016 104.52 23.304C104.616 23.592 104.776 23.976 105 24.456L112.296 17.016ZM123.026 0.983997H128.498V33H123.026V0.983997ZM136.001 2.952C137.025 2.952 137.873 3.304 138.545 4.008C139.217 4.68 139.553 5.528 139.553 6.552C139.553 7.544 139.217 8.376 138.545 9.048C137.873 9.72 137.057 10.056 136.097 10.056C135.073 10.056 134.209 9.704 133.505 9C132.801 8.296 132.449 7.432 132.449 6.408C132.449 5.448 132.785 4.632 133.457 3.96C134.129 3.288 134.977 2.952 136.001 2.952ZM133.025 11.64H138.641V33H133.025V11.64ZM148.533 0.983997L158.853 23.304L169.653 0.983997H176.181L160.581 33H156.933L142.053 0.983997H148.533ZM184.244 27.672C184.66 27.864 184.996 27.992 185.252 28.056C185.508 28.12 185.796 28.152 186.116 28.152C187.46 28.152 188.692 27.928 189.812 27.48C190.932 27.032 192.244 26.248 193.748 25.128V31.032C192.98 31.512 192.276 31.928 191.636 32.28C191.028 32.6 190.436 32.856 189.86 33.048C189.284 33.24 188.708 33.368 188.132 33.432C187.588 33.528 186.996 33.576 186.356 33.576C184.82 33.576 183.364 33.288 181.988 32.712C180.612 32.136 179.412 31.352 178.388 30.36C177.364 29.336 176.548 28.152 175.94 26.808C175.364 25.464 175.076 24.024 175.076 22.488C175.076 20.92 175.364 19.448 175.94 18.072C176.548 16.696 177.364 15.496 178.388 14.472C179.412 13.448 180.612 12.632 181.988 12.024C183.364 11.416 184.836 11.112 186.404 11.112C188.228 11.112 189.876 11.496 191.348 12.264C192.82 13.032 194.324 14.296 195.86 16.056L184.244 27.672ZM188.372 17.016C187.892 16.824 187.492 16.696 187.172 16.632C186.884 16.568 186.564 16.536 186.212 16.536C185.444 16.536 184.708 16.696 184.004 17.016C183.332 17.304 182.724 17.72 182.18 18.264C181.668 18.776 181.252 19.384 180.932 20.088C180.644 20.792 180.5 21.544 180.5 22.344C180.5 22.696 180.532 23.016 180.596 23.304C180.692 23.592 180.852 23.976 181.076 24.456L188.372 17.016ZM198.809 23.208C198.809 21.48 199.097 19.896 199.673 18.456C200.249 17.016 201.033 15.784 202.025 14.76C203.049 13.704 204.265 12.888 205.673 12.312C207.081 11.736 208.617 11.448 210.281 11.448C210.505 11.448 210.761 11.464 211.049 11.496C211.337 11.496 211.673 11.512 212.057 11.544V16.872H211.145C210.089 16.872 209.225 16.952 208.553 17.112C207.881 17.272 207.225 17.576 206.585 18.024C205.881 18.472 205.321 19.08 204.905 19.848C204.489 20.616 204.281 21.384 204.281 22.152V33H198.809V23.208ZM219.811 11.64V21.912C219.811 22.808 219.859 23.528 219.955 24.072C220.051 24.584 220.211 25.064 220.435 25.512C220.883 26.312 221.491 26.952 222.259 27.432C223.027 27.912 223.827 28.152 224.659 28.152C225.971 28.152 227.075 27.608 227.971 26.52C228.419 25.976 228.771 25.368 229.027 24.696C229.315 24.024 229.459 23.416 229.459 22.872V11.64H234.787V30.936C234.787 32.952 234.499 34.712 233.923 36.216C233.379 37.72 232.515 39.032 231.331 40.152C230.403 40.984 229.379 41.64 228.259 42.12C227.139 42.6 226.003 42.84 224.851 42.84C222.387 42.84 220.339 42.232 218.707 41.016C217.107 39.832 215.843 37.944 214.915 35.352L219.811 33.816C220.483 35.16 221.171 36.104 221.875 36.648C222.611 37.192 223.491 37.464 224.515 37.464C225.219 37.464 225.875 37.304 226.483 36.984C227.123 36.696 227.635 36.28 228.019 35.736C228.403 35.192 228.691 34.632 228.883 34.056C229.107 33.48 229.299 32.632 229.459 31.512C228.659 32.28 227.907 32.808 227.203 33.096C226.531 33.384 225.651 33.528 224.563 33.528C221.267 33.528 218.563 32.088 216.451 29.208C215.683 28.184 215.139 27.096 214.819 25.944C214.499 24.792 214.339 23.368 214.339 21.672V11.64H219.811Z" fill="#161F1C"/>
<path d="M81.2133 52.76H81.9533V56.4H80.6733V54H73.7933V56.4H72.4533V52.76H73.3133C73.9533 52.48 74.2733 51.6067 74.2733 50.14V44.88H81.2133V52.76ZM74.8533 52.9H79.9133V45.98H75.5733V50.1C75.5733 51.2867 75.3333 52.22 74.8533 52.9ZM91.915 52.86C91.0617 53.78 89.9284 54.24 88.515 54.24C87.1017 54.24 85.9617 53.78 85.095 52.86C84.2417 51.94 83.815 50.8 83.815 49.44C83.815 48.08 84.2417 46.94 85.095 46.02C85.9617 45.1 87.1017 44.64 88.515 44.64C89.9284 44.64 91.0617 45.1 91.915 46.02C92.7684 46.9267 93.195 48.0667 93.195 49.44C93.195 50.8 92.7684 51.94 91.915 52.86ZM86.035 52.02C86.6617 52.7133 87.4884 53.06 88.515 53.06C89.5417 53.06 90.3617 52.7133 90.975 52.02C91.6017 51.3267 91.915 50.4667 91.915 49.44C91.915 48.4 91.6084 47.54 90.995 46.86C90.3817 46.1667 89.555 45.82 88.515 45.82C87.475 45.82 86.6484 46.1667 86.035 46.86C85.4217 47.54 85.115 48.4 85.115 49.44C85.115 50.4667 85.4217 51.3267 86.035 52.02ZM99.5902 54.22C98.2169 54.22 97.1169 53.78 96.2902 52.9C95.4635 52.02 95.0502 50.8667 95.0502 49.44C95.0502 48.0133 95.4635 46.8667 96.2902 46C97.1169 45.12 98.2169 44.68 99.5902 44.68C100.777 44.68 101.744 44.98 102.49 45.58C103.237 46.1667 103.664 46.9667 103.77 47.98H102.47C102.35 47.2867 102.037 46.76 101.53 46.4C101.037 46.0267 100.384 45.84 99.5702 45.84C98.5835 45.84 97.7969 46.1667 97.2102 46.82C96.6369 47.46 96.3502 48.3333 96.3502 49.44C96.3502 50.5467 96.6369 51.4267 97.2102 52.08C97.7969 52.72 98.5835 53.04 99.5702 53.04C100.384 53.04 101.037 52.8667 101.53 52.52C102.037 52.16 102.35 51.64 102.47 50.96H103.77C103.664 51.96 103.237 52.7533 102.49 53.34C101.744 53.9267 100.777 54.22 99.5902 54.22ZM112.447 44.88V46.1H109.467V54H108.187V46.1H105.227V44.88H112.447ZM114.903 44.88H119.303C120.209 44.88 120.883 45.1133 121.323 45.58C121.763 46.0467 121.983 46.6 121.983 47.24C121.983 47.76 121.796 48.2133 121.423 48.6C121.063 48.9867 120.596 49.22 120.023 49.3C120.609 49.3267 121.103 49.56 121.503 50C121.903 50.4267 122.103 50.9467 122.103 51.56C122.103 52.2 121.863 52.7667 121.383 53.26C120.903 53.7533 120.189 54 119.243 54H114.903V44.88ZM119.243 48.86C119.656 48.86 119.996 48.7133 120.263 48.42C120.543 48.1133 120.683 47.7533 120.683 47.34C120.683 46.9267 120.543 46.5733 120.263 46.28C119.983 45.9867 119.629 45.84 119.203 45.84H116.163V48.86H119.243ZM116.163 49.82V53.04H119.263C119.689 53.04 120.049 52.8867 120.343 52.58C120.649 52.2733 120.803 51.9067 120.803 51.48C120.803 51.0267 120.656 50.64 120.363 50.32C120.069 49.9867 119.709 49.82 119.283 49.82H116.163ZM128.726 54.24C127.326 54.24 126.212 53.7933 125.386 52.9C124.572 51.9933 124.166 50.8467 124.166 49.46C124.166 48.0733 124.579 46.9267 125.406 46.02C126.246 45.1 127.359 44.64 128.746 44.64C129.572 44.64 130.299 44.8467 130.926 45.26C131.552 45.66 132.006 46.2 132.286 46.88V44.88H133.586V54H132.286V52.04C132.006 52.6933 131.539 53.2267 130.886 53.64C130.246 54.04 129.526 54.24 128.726 54.24ZM128.886 53.06C129.952 53.06 130.799 52.7133 131.426 52.02C132.052 51.3267 132.366 50.4733 132.366 49.46C132.366 48.4333 132.052 47.5733 131.426 46.88C130.799 46.1733 129.952 45.82 128.886 45.82C127.859 45.82 127.032 46.1667 126.406 46.86C125.779 47.54 125.466 48.4067 125.466 49.46C125.466 50.5 125.779 51.36 126.406 52.04C127.032 52.72 127.859 53.06 128.886 53.06ZM144.322 54H142.682L138.282 49.58V54H136.982V44.88H138.282V48.98H138.762C139.242 48.98 139.682 48.6533 140.082 48L141.442 46.02C141.762 45.5667 142.042 45.2467 142.282 45.06C142.536 44.8733 142.869 44.78 143.282 44.78H144.022V45.96H143.562C143.282 45.96 143.062 46.0267 142.902 46.16C142.742 46.28 142.556 46.5067 142.342 46.84L141.402 48.22C141.122 48.6467 140.869 48.9467 140.642 49.12C140.416 49.28 140.136 49.36 139.802 49.36H139.722L144.322 54ZM149.751 54.24C148.351 54.24 147.237 53.7933 146.411 52.9C145.597 51.9933 145.191 50.8467 145.191 49.46C145.191 48.0733 145.604 46.9267 146.431 46.02C147.271 45.1 148.384 44.64 149.771 44.64C150.597 44.64 151.324 44.8467 151.951 45.26C152.577 45.66 153.031 46.2 153.311 46.88V44.88H154.611V54H153.311V52.04C153.031 52.6933 152.564 53.2267 151.911 53.64C151.271 54.04 150.551 54.24 149.751 54.24ZM149.911 53.06C150.977 53.06 151.824 52.7133 152.451 52.02C153.077 51.3267 153.391 50.4733 153.391 49.46C153.391 48.4333 153.077 47.5733 152.451 46.88C151.824 46.1733 150.977 45.82 149.911 45.82C148.884 45.82 148.057 46.1667 147.431 46.86C146.804 47.54 146.491 48.4067 146.491 49.46C146.491 50.5 146.804 51.36 147.431 52.04C148.057 52.72 148.884 53.06 149.911 53.06Z" fill="#D0D2D2"/>
</svg>
