<svg width="31" height="30" viewBox="0 0 31 30" fill="none" xmlns="http://www.w3.org/2000/svg">
<path d="M4.83325 13.221C4.83325 10.7412 4.83325 9.50188 5.39659 8.47488C5.95775 7.44679 6.98583 6.80979 9.04092 5.53363L11.2076 4.18921C13.3797 2.84046 14.4663 2.16663 15.6666 2.16663C16.8669 2.16663 17.9524 2.84046 20.1256 4.18921L22.2922 5.53363C24.3473 6.80979 25.3754 7.44679 25.9377 8.47488C26.4999 9.50188 26.4999 10.7412 26.4999 13.2199V14.8687C26.4999 19.0937 26.4999 21.2073 25.2302 22.5203C23.9617 23.8333 21.9185 23.8333 17.8333 23.8333H13.4999C9.41467 23.8333 7.3715 23.8333 6.10292 22.5203C4.83325 21.2073 4.83325 19.0948 4.83325 14.8687V13.221Z" stroke="#00C27C" stroke-width="1.5"/>
<path d="M15.6666 16.25V19.5" stroke="#00C27C" stroke-width="1.5" stroke-linecap="round"/>
</svg>
