<svg width="30" height="30" viewBox="0 0 30 30" fill="none" xmlns="http://www.w3.org/2000/svg">
<path d="M24.75 8.12508L20.4167 10.2917M20.4167 10.2917L19.875 10.5626L15 13.0001M20.4167 10.2917V14.0834M20.4167 10.2917L10.125 4.87508M15 13.0001L5.25 8.12508M15 13.0001V23.2917M18.8762 3.66391L21.0428 4.80141C23.3731 6.0245 24.5387 6.6355 25.1866 7.73508C25.8333 8.83358 25.8333 10.2018 25.8333 12.9372V13.064C25.8333 15.7983 25.8333 17.1666 25.1866 18.2651C24.5387 19.3647 23.3731 19.9767 21.0428 21.1998L18.8762 22.3362C16.9738 23.334 16.0227 23.8334 15 23.8334C13.9773 23.8334 13.0262 23.3351 11.1238 22.3362L8.95717 21.1987C6.62692 19.9757 5.46125 19.3647 4.81342 18.2651C4.16667 17.1666 4.16667 15.7983 4.16667 13.0651V12.9383C4.16667 10.2029 4.16667 8.83466 4.81342 7.73616C5.46125 6.63658 6.62692 6.0245 8.95717 4.8025L11.1238 3.665C13.0262 2.66616 13.9773 2.16675 15 2.16675C16.0227 2.16675 16.9738 2.66508 18.8762 3.66391Z" stroke="#00C27C" stroke-width="1.5" stroke-linecap="round"/>
</svg>
